<svg xmlns="http://www.w3.org/2000/svg" width="24" height="24" viewBox="0 0 24 24">
    <path d="M12 0C5.373 0 0 5.373 0 12c0 5.302 3.438 9.8 8.22 11.387.6.11.823-.262.823-.577 0-.286-.01-1.04-.015-2.037-3.338.725-4.042-1.286-4.042-1.286-.546-1.387-1.334-1.756-1.334-1.756-1.09-.746.083-.732.083-.732 1.205.086 1.843 1.238 1.843 1.238 1.07 1.835 2.808 1.305 3.49.997.108-.772.418-1.305.762-1.603-2.665-.303-5.465-1.334-5.465-5.93 0-1.31.47-2.383 1.236-3.224-.124-.303-.54-1.527.12-3.18 0 0 1.01-.324 3.32 1.23.963-.268 2-.402 3.017-.407 1.016.005 2.053.14 3.017.407 2.31-1.554 3.32-1.23 3.32-1.23.662 1.653.246 2.877.12 3.18.767.84 1.236 1.913 1.236 3.224 0 4.606-2.805 5.623-5.475 5.922.43.372.816 1.104.816 2.22 0 1.606-.015 2.896-.015 3.292 0 .317.22.692.83.572 4.782-1.588 8.22-6.085 8.22-11.387 0-6.627-5.373-12-12-12z"/>
</svg>
